<?xml version="1.0" standalone="no"?>
<!DOCTYPE svg PUBLIC "-//W3C//DTD SVG 20010904//EN"
 "http://www.w3.org/TR/2001/REC-SVG-20010904/DTD/svg10.dtd">
<svg version="1.0" xmlns="http://www.w3.org/2000/svg"
 width="332.000000pt" height="319.000000pt" viewBox="0 0 332.000000 319.000000"
 preserveAspectRatio="xMidYMid meet">

<g transform="translate(0.000000,319.000000) scale(0.100000,-0.100000)"
fill="#000000" stroke="none">
<path d="M2004 2876 c-74 -33 -144 -122 -144 -186 0 -32 -14 -40 -28 -14 -7
13 -11 12 -23 -8 -32 -49 -42 -89 -36 -143 4 -44 3 -55 -9 -55 -13 0 -13 -4 0
-27 19 -38 54 -69 98 -87 l37 -16 -15 35 c-13 31 -12 39 1 71 8 19 19 33 25
29 6 -4 10 12 11 42 0 54 18 115 35 120 7 2 14 -13 17 -37 4 -29 17 -53 45
-84 43 -46 58 -98 42 -140 -5 -14 -7 -26 -4 -26 16 0 64 33 94 65 22 24 27 33
13 24 -30 -18 -43 -2 -17 20 51 41 55 82 16 151 l-29 50 -12 -27 c-12 -25 -14
-22 -48 77 -25 75 -34 115 -30 142 6 42 5 43 -39 24z"/>
<path d="M970 1669 c0 -571 2 -592 68 -729 48 -99 168 -221 262 -267 130 -63
158 -68 355 -68 142 1 195 4 250 19 39 10 73 20 77 22 3 2 -13 25 -37 51 -24
26 -60 75 -80 109 -36 61 -38 63 -69 56 -17 -4 -80 -7 -141 -6 -90 0 -121 4
-169 24 -67 26 -145 93 -181 155 -52 89 -55 124 -55 654 l0 491 -140 0 -140 0
0 -511z"/>
<path d="M1820 1632 c0 -486 1 -524 20 -597 50 -194 194 -353 377 -414 34 -12
76 -21 93 -21 l30 0 0 128 0 128 -42 19 c-52 23 -127 97 -152 150 -49 102 -49
112 -53 633 l-4 492 -135 0 -134 0 0 -518z"/>
</g>
</svg>
